<?xml version="1.0" encoding="UTF-8" standalone="no"?>
<svg
   viewBox="0 0 24 24"
   version="1.1"
   id="svg184"
   sodipodi:docname="thumbs-up-down.svg"
   inkscape:version="1.2.1 (9c6d41e4, 2022-07-14)"
   xmlns:inkscape="http://www.inkscape.org/namespaces/inkscape"
   xmlns:sodipodi="http://sodipodi.sourceforge.net/DTD/sodipodi-0.dtd"
   xmlns="http://www.w3.org/2000/svg"
   xmlns:svg="http://www.w3.org/2000/svg">
  <defs
     id="defs188" />
  <sodipodi:namedview
     id="namedview186"
     pagecolor="#ffffff"
     bordercolor="#000000"
     borderopacity="0.25"
     inkscape:showpageshadow="2"
     inkscape:pageopacity="0.0"
     inkscape:pagecheckerboard="0"
     inkscape:deskcolor="#d1d1d1"
     showgrid="false"
     showguides="false"
     inkscape:zoom="9.8333333"
     inkscape:cx="-1.6271186"
     inkscape:cy="5.2372881"
     inkscape:window-width="1680"
     inkscape:window-height="997"
     inkscape:window-x="0"
     inkscape:window-y="55"
     inkscape:window-maximized="1"
     inkscape:current-layer="svg184" />
  <path
     style="fill:#f9ad1d;fill-opacity:0.8;stroke-width:0.0305085"
     d="m 18.328341,13.336378 c -0.25993,-0.277886 -0.503037,-0.62652 -0.540238,-0.774743 -0.05523,-0.220042 0.390282,-2.7169361 0.63095,-3.5362111 0.0489,-0.16646 -0.129472,-0.177966 -2.759007,-0.177966 h -2.811285 l -0.297262,-0.297262 c -0.284871,-0.284871 -0.297263,-0.335726 -0.297263,-1.21999 v -0.922729 l 1.17861,-2.771535 c 0.648235,-1.524344 1.245637,-2.87668504 1.327559,-3.00520304 0.08192,-0.128518 0.295193,-0.322838 0.473933,-0.431823 0.306673,-0.186991 0.53757,-0.19817699559 4.09808,-0.19853499559 5.237525,-5.28e-4 4.819736,-0.40405500441 4.819966,4.65542803559 1.02e-4,2.763941 -0.02933,3.554123 -0.142139,3.81356 -0.07826,0.179983 -1.282373,1.46237 -2.6758,2.8497491 l -2.533505,2.522506 z"
     id="path9500" />
  <path
     style="fill:#3cbbb4;fill-opacity:0.8;stroke:none;stroke-width:0.0305085;stroke-opacity:1"
     d="m 0.75232716,23.769159 c -0.6892904,-0.460477 -0.7011453,-0.535274 -0.7013216,-4.424968 -1.253e-4,-2.763941 0.029326,-3.554123 0.1421383,-3.81356 0.078263,-0.179983 1.28237334,-1.46237 2.67580054,-2.849749 l 2.5335042,-2.522505 0.4725994,0.505246 c 0.2599296,0.277886 0.5030369,0.62652 0.5402383,0.774743 0.055227,0.220043 -0.3902824,2.716935 -0.6309506,3.53621 -0.048899,0.16646 0.1294728,0.177966 2.7590067,0.177966 h 2.8112856 l 0.297261,0.297262 c 0.285233,0.285233 0.297263,0.334914 0.297263,1.227706 v 0.930444 l -1.179421,2.763819 c -0.648682,1.520101 -1.2460826,2.86897 -1.3275586,2.997488 -0.08148,0.128518 -0.294381,0.322839 -0.473122,0.431823 -0.306672,0.186991 -0.53757,0.198176 -4.0980791,0.198535 -3.7536805,4.07e-4 -3.7748748,-8.14e-4 -4.11864414,-0.23046 z"
     id="path10269" />
</svg>
